<svg width="20" height="21" viewBox="0 0 20 21" fill="none" xmlns="http://www.w3.org/2000/svg">
<path d="M9.22211 10.8646L8.63844 13.2296C9.35921 13.4108 11.5803 14.1316 11.9093 12.7978C12.2521 11.4062 9.94189 11.0458 9.22211 10.8646ZM10.0183 7.63587L9.48946 9.78152C10.0888 9.93233 11.9377 10.5493 12.2374 9.33593C12.5488 8.0697 10.6176 7.78766 10.0183 7.63587ZM10.0682 0.957031C8.13135 0.957031 6.23797 1.53138 4.62752 2.60745C3.01707 3.68352 1.76187 5.21298 1.02066 7.00242C0.279451 8.79186 0.0855164 10.7609 0.463382 12.6606C0.841247 14.5602 1.77394 16.3052 3.14352 17.6747C4.5131 19.0443 6.25804 19.977 8.1577 20.3549C10.0574 20.7328 12.0264 20.5388 13.8158 19.7976C15.6053 19.0564 17.1347 17.8012 18.2108 16.1908C19.2869 14.5803 19.8612 12.6869 19.8612 10.75C19.8612 9.46401 19.6079 8.19056 19.1158 7.00242C18.6236 5.81428 17.9023 4.7347 16.9929 3.82534C16.0836 2.91597 15.004 2.19462 13.8158 1.70248C12.6277 1.21034 11.3543 0.957031 10.0682 0.957031ZM14.336 9.35454C14.3154 9.73023 14.1713 10.0886 13.926 10.3739C13.6807 10.6592 13.348 10.8555 12.9797 10.9322C13.2218 11.0308 13.4409 11.1784 13.6232 11.3659C13.8054 11.5533 13.9469 11.7765 14.0386 12.0213C14.1303 12.2661 14.1704 12.5273 14.1561 12.7884C14.1419 13.0494 14.0738 13.3047 13.956 13.5381C13.3822 15.1951 12.02 15.3351 10.2083 14.9885L9.76856 16.7708L8.70602 16.5025L9.13985 14.7446C8.85688 14.6741 8.57482 14.6 8.29373 14.5223L7.85794 16.289L6.79638 16.0216L7.23706 14.2354C6.98832 14.1717 6.73664 14.1032 6.47908 14.0385L5.09631 13.6899L5.62415 12.4599C5.62415 12.4599 6.4076 12.6705 6.39584 12.6548C6.44457 12.6705 6.49594 12.6764 6.54697 12.6721C6.59799 12.6678 6.64765 12.6534 6.69304 12.6297C6.73843 12.606 6.77865 12.5735 6.81136 12.5341C6.84407 12.4947 6.8686 12.4491 6.88354 12.4002L8.07535 7.5634C8.09062 7.41534 8.04747 7.26717 7.95509 7.15046C7.86271 7.03375 7.72841 6.95773 7.5808 6.9386C7.59647 6.92783 6.80813 6.7447 6.80813 6.7447L7.09213 5.59696L8.55618 5.96714L8.5552 5.97301C8.77555 6.02785 9.00274 6.08074 9.23386 6.13362L9.66867 4.36892L10.7312 4.63725L10.3042 6.36669C10.5892 6.43328 10.8761 6.4989 11.1562 6.56941L11.5793 4.85073L12.6418 5.11906L12.206 6.88376C13.5477 7.35089 14.5289 8.05207 14.336 9.35454Z" fill="white"/>
</svg>
