<svg width="16" height="16" viewBox="0 0 16 16" fill="none" xmlns="http://www.w3.org/2000/svg">
<path d="M10.1143 11.1964C10.2107 11.2929 10.2107 11.4393 10.1143 11.525C9.23929 12.4 6.76429 12.4036 5.88571 11.525C5.78929 11.4393 5.78929 11.2929 5.88571 11.1964C5.97143 11.1107 6.11786 11.1107 6.20357 11.1964C6.87143 11.8821 9.09643 11.8964 9.79286 11.1964C9.87857 11.1143 10.0286 11.1143 10.1143 11.1964ZM6.85357 9.275C6.85357 8.74286 6.42857 8.31786 5.90714 8.31786C5.375 8.31786 4.95 8.74286 4.95 9.275C4.95 9.79643 5.375 10.2214 5.90714 10.2214C6.42857 10.2214 6.85357 9.79643 6.85357 9.275ZM10.0929 8.31786C9.57143 8.31786 9.14643 8.74286 9.14643 9.275C9.14643 9.79643 9.57143 10.2214 10.0929 10.2214C10.625 10.2214 11.05 9.79643 11.05 9.275C11.05 8.74286 10.625 8.31786 10.0929 8.31786ZM16 1.71429V14.2857C16 15.2321 15.2321 16 14.2857 16H1.71429C0.767857 16 0 15.2321 0 14.2857V1.71429C0 0.767857 0.767857 0 1.71429 0H14.2857C15.2321 0 16 0.767857 16 1.71429ZM12.4393 6.73571C12.0786 6.73571 11.7607 6.88571 11.525 7.11786C10.6643 6.52143 9.50714 6.13929 8.22143 6.09643L8.88929 3.08929L11.0143 3.56786C11.0143 4.08929 11.4393 4.51429 11.9607 4.51429C12.4929 4.51429 12.9179 4.07857 12.9179 3.55714C12.9179 3.03571 12.4929 2.6 11.9607 2.6C11.5893 2.6 11.2714 2.82143 11.1107 3.13214L8.76429 2.61071C8.64643 2.57857 8.53214 2.66429 8.5 2.78214L7.76786 6.09643C6.49286 6.15 5.34643 6.53214 4.48571 7.12857C4.25357 6.88572 3.92143 6.73571 3.56071 6.73571C2.22143 6.73571 1.78214 8.53572 3.00714 9.14643C2.96429 9.33929 2.94286 9.53929 2.94286 9.74286C2.94286 11.7607 5.21786 13.3964 8.01071 13.3964C10.8143 13.3964 13.0893 11.7607 13.0893 9.74286C13.0893 9.53929 13.0679 9.32857 13.0143 9.13571C14.2143 8.52143 13.7714 6.73571 12.4393 6.73571Z" fill="white"/>
</svg>
