<svg width="16" height="13" viewBox="0 0 16 13" fill="none" xmlns="http://www.w3.org/2000/svg">
<path d="M14.3554 3.04925C14.3655 3.18307 14.3655 3.31692 14.3655 3.45073C14.3655 7.53233 11.066 12.2353 5.03555 12.2353C3.17767 12.2353 1.45179 11.7287 0 10.8493C0.26397 10.8779 0.517752 10.8875 0.791878 10.8875C2.32485 10.8875 3.73605 10.4 4.86296 9.5684C3.42133 9.53971 2.2132 8.65074 1.79694 7.42721C2.00001 7.45586 2.20304 7.47499 2.41626 7.47499C2.71067 7.47499 3.00511 7.43674 3.2792 7.36986C1.77666 7.08307 0.649721 5.84044 0.649721 4.3397V4.30148C1.08625 4.53089 1.59391 4.67427 2.13195 4.69337C1.24869 4.13895 0.670034 3.19263 0.670034 2.12204C0.670034 1.54852 0.832441 1.02278 1.11672 0.563956C2.73095 2.43748 5.15736 3.66099 7.87816 3.79484C7.82741 3.56543 7.79694 3.32648 7.79694 3.0875C7.79694 1.38601 9.25888 0 11.0761 0C12.0203 0 12.8731 0.372793 13.4721 0.975C14.2132 0.841183 14.9238 0.583081 15.5533 0.229413C15.3096 0.946342 14.7919 1.54855 14.1117 1.93087C14.7716 1.864 15.4112 1.6919 16 1.45295C15.5534 2.06469 14.995 2.60952 14.3554 3.04925Z" fill="white"/>
</svg>
