<svg width="27" height="22" viewBox="0 0 27 22" fill="none" xmlns="http://www.w3.org/2000/svg">
<path d="M21.6415 9.61757C21.6415 9.61757 21.9903 11.3252 22.0684 11.6833H20.5352C20.6866 11.2747 21.2696 9.68642 21.2696 9.68642C21.2605 9.7002 21.4211 9.26869 21.5129 9.00244L21.6415 9.61757ZM26.5028 2.67218V18.8306C26.5028 20.0471 25.5158 21.0341 24.2994 21.0341H2.26507C1.0486 21.0341 0.0616455 20.0471 0.0616455 18.8306V2.67218C0.0616455 1.4557 1.0486 0.46875 2.26507 0.46875H24.2994C25.5158 0.46875 26.5028 1.4557 26.5028 2.67218ZM7.06212 14.2035L9.9633 7.07903H8.01235L6.20829 11.9449L6.0109 10.958L5.36823 7.68039C5.26265 7.22593 4.93673 7.0974 4.53277 7.07903H1.56273L1.5306 7.22134C2.25589 7.40496 2.90315 7.67121 3.46778 8.00631L5.11117 14.2035H7.06212ZM11.3955 14.2126L12.5523 7.07903H10.707L9.55475 14.2126H11.3955ZM17.8176 11.8807C17.8268 11.0682 17.331 10.4484 16.2706 9.9389C15.6234 9.61298 15.2286 9.39263 15.2286 9.05753C15.2378 8.75456 15.5637 8.4424 16.289 8.4424C16.8903 8.42863 17.331 8.57094 17.6615 8.71324L17.8268 8.79128L18.0793 7.24888C17.7166 7.10658 17.1382 6.94591 16.4267 6.94591C14.6043 6.94591 13.3235 7.91909 13.3143 9.30541C13.3006 10.3291 14.2324 10.8983 14.9302 11.2426C15.6417 11.5915 15.885 11.821 15.885 12.1286C15.8758 12.606 15.3066 12.8263 14.7787 12.8263C14.0442 12.8263 13.6495 12.7115 13.0481 12.4453L12.8048 12.3305L12.5477 13.9326C12.9792 14.13 13.778 14.3044 14.6043 14.3136C16.5415 14.3182 17.8038 13.3588 17.8176 11.8807ZM24.2994 14.2126L22.812 7.07903H21.3844C20.9437 7.07903 20.6086 7.20757 20.4204 7.6712L17.6799 14.2126H19.6171C19.6171 14.2126 19.9338 13.3313 20.0027 13.1431H22.3714C22.4264 13.3955 22.5917 14.2126 22.5917 14.2126H24.2994Z" fill="white"/>
</svg>
